<svg width="180" height="180" viewBox="0 0 180 180" fill="none" xmlns="http://www.w3.org/2000/svg"><g clip-path="url(#a)"><g filter="url(#b)"><path d="M90 161c42.526 0 77-34.474 77-77S132.526 7 90 7 13 41.474 13 84s34.474 77 77 77Z" fill="#fff"/><path d="M90 160.606c42.308 0 76.606-34.298 76.606-76.606 0-42.308-34.298-76.606-76.606-76.606-42.308 0-76.606 34.298-76.606 76.606 0 42.308 34.298 76.606 76.606 76.606Z" stroke="#F1F3F4" stroke-width=".789"/></g><path d="M132.349 77.484h-23.1v11.55h23.1v-11.55Z" fill="#188038"/><path d="M68.824 104.432c-11.55 0-21.175-9.625-21.175-21.175s9.625-21.175 21.175-21.175S90 71.707 90 83.257s-9.625 21.175-21.175 21.175Zm0-30.8c-5.39 0-9.625 4.235-9.625 9.625s4.235 9.625 9.625 9.625 9.625-4.235 9.625-9.625-4.235-9.625-9.625-9.625Z" fill="#4285F4"/><path d="M124.649 89.031h-15.4v11.55h7.7v-3.85c0-2.31 1.54-3.85 3.85-3.85s3.85 1.54 3.85 3.85v3.85h7.7v-11.55h-7.7Z" fill="#34A853"/><path d="M89.228 77.484H76.523a9.457 9.457 0 0 1 1.925 5.775c0 2.31-.77 4.235-1.925 5.775h12.705c.385-1.925.77-3.85.77-5.775 0-1.925-.385-3.85-.77-5.775Z" fill="#EA4335"/><path d="M109.248 77.484h-20.02c.385 1.925.77 3.85.77 5.775 0 1.925-.386 3.85-.77 5.775h20.02v-11.55Z" fill="#FBBC04"/></g><defs><clipPath id="a"><path fill="#fff" d="M0 0h180v180H0z"/></clipPath><filter id="b" x=".379" y=".69" width="179.242" height="179.242" filterUnits="userSpaceOnUse" color-interpolation-filters="sRGB"><feFlood flood-opacity="0" result="BackgroundImageFix"/><feColorMatrix in="SourceAlpha" values="0 0 0 0 0 0 0 0 0 0 0 0 0 0 0 0 0 0 127 0" result="hardAlpha"/><feOffset dy="6.31"/><feGaussianBlur stdDeviation="6.31"/><feColorMatrix values="0 0 0 0 0.321632 0 0 0 0 0.413189 0 0 0 0 0.491667 0 0 0 0.08 0"/><feBlend in2="BackgroundImageFix" result="effect1_dropShadow_0_3"/><feColorMatrix in="SourceAlpha" values="0 0 0 0 0 0 0 0 0 0 0 0 0 0 0 0 0 0 127 0" result="hardAlpha"/><feOffset dy="4.733"/><feGaussianBlur stdDeviation="3.155"/><feColorMatrix values="0 0 0 0 0.321632 0 0 0 0 0.413189 0 0 0 0 0.491667 0 0 0 0.04 0"/><feBlend in2="effect1_dropShadow_0_3" result="effect2_dropShadow_0_3"/><feBlend in="SourceGraphic" in2="effect2_dropShadow_0_3" result="shape"/></filter></defs></svg>